<svg width="53" height="53" viewBox="0 0 53 53" fill="none" xmlns="http://www.w3.org/2000/svg">
<g filter="url(#filter0_d_1_925)">
<rect x="5" y="1" width="43" height="43" rx="21.5" fill="#44A3DD"/>
<path d="M12.4064 17.2877L19.6689 30.6005C20.0285 31.3879 21.179 31.3163 21.7542 30.2427L26.4281 21.6538C25.6372 20.1984 23.9689 17.1446 23.6238 16.572C23.2786 15.9994 22.665 15.8085 22.4014 15.7847H13.2693C12.1188 15.7847 12.1907 16.8583 12.4064 17.2877Z" fill="#BEE5F7"/>
<path d="M30.9583 15.7846H39.7309C40.7088 15.7846 40.7962 16.7867 40.5219 17.2877C38.3407 21.272 33.9353 29.3838 33.475 30.2427C33.0148 31.1015 32.2766 31.3163 31.965 31.3163H21.1791C20.5463 31.3163 20.0286 31.0538 19.8848 30.8868C20.8052 31.4594 21.5386 30.6721 21.7543 30.2427C23.7677 26.5208 28.0462 18.725 28.873 17.2161C29.7359 15.6415 30.5269 15.7846 30.9583 15.7846Z" fill="white"/>
</g>
<defs>
<filter id="filter0_d_1_925" x="0" y="0" width="53" height="53" filterUnits="userSpaceOnUse" color-interpolation-filters="sRGB">
<feFlood flood-opacity="0" result="BackgroundImageFix"/>
<feColorMatrix in="SourceAlpha" type="matrix" values="0 0 0 0 0 0 0 0 0 0 0 0 0 0 0 0 0 0 127 0" result="hardAlpha"/>
<feOffset dy="4"/>
<feGaussianBlur stdDeviation="2.5"/>
<feComposite in2="hardAlpha" operator="out"/>
<feColorMatrix type="matrix" values="0 0 0 0 0 0 0 0 0 0 0 0 0 0 0 0 0 0 0.05 0"/>
<feBlend mode="normal" in2="BackgroundImageFix" result="effect1_dropShadow_1_925"/>
<feBlend mode="normal" in="SourceGraphic" in2="effect1_dropShadow_1_925" result="shape"/>
</filter>
</defs>
</svg>
